<?xml version="1.0" standalone="no"?>
<!DOCTYPE svg PUBLIC "-//W3C//DTD SVG 20010904//EN"
 "http://www.w3.org/TR/2001/REC-SVG-20010904/DTD/svg10.dtd">
<svg version="1.0" xmlns="http://www.w3.org/2000/svg"
 width="1139.000000pt" height="219.000000pt" viewBox="0 0 1139.000000 219.000000"
 preserveAspectRatio="xMidYMid meet">

<g transform="translate(0.000000,219.000000) scale(0.100000,-0.100000)"
fill="#5C4F3E" stroke="none">
<path d="M675 2171 c-2 -5 -33 -6 -68 -4 -76 6 -202 -22 -292 -67 -206 -102
-314 -293 -284 -504 13 -96 47 -165 116 -237 76 -80 164 -133 363 -219 91 -39
224 -98 295 -132 72 -33 138 -61 147 -62 9 0 15 -4 12 -8 -2 -4 15 -20 39 -37
182 -125 233 -364 114 -537 -19 -27 -32 -56 -30 -64 3 -10 2 -11 -4 -4 -5 8
-21 2 -50 -21 -23 -18 -40 -35 -38 -39 3 -3 2 -4 -1 -2 -3 2 -29 -6 -58 -19
-30 -13 -71 -27 -92 -31 -36 -7 -37 -8 -14 -14 14 -4 -36 -6 -110 -4 -97 2
-154 8 -205 23 -38 11 -74 17 -79 14 -5 -3 -6 -1 -3 4 4 6 -6 16 -24 22 -47
16 -150 94 -206 154 -60 66 -122 168 -159 262 -37 96 -44 100 -44 22 0 -59 23
-285 35 -343 9 -42 296 -158 392 -158 28 0 50 -3 48 -7 -7 -10 89 -19 200 -19
125 0 269 29 350 70 111 56 214 159 257 256 31 71 50 180 42 243 -29 239 -156
364 -538 527 -429 184 -518 240 -587 366 -32 58 -34 69 -34 153 0 77 4 98 27
149 16 32 25 62 22 67 -3 5 0 8 8 7 7 -2 12 4 10 12 -2 8 0 12 4 8 4 -4 25 9
47 28 66 60 168 101 277 113 58 6 118 7 155 2 137 -20 273 -95 357 -198 41
-49 115 -188 137 -255 7 -21 17 -38 22 -38 8 0 3 358 -6 386 -5 18 -178 81
-295 108 -113 26 -246 40 -255 27z m172 -36 c-8 -9 -18 -10 -29 -4 -24 13 -23
14 11 15 23 1 26 -2 18 -11z m-527 -49 c0 -2 -8 -10 -17 -17 -16 -13 -17 -12
-4 4 13 16 21 21 21 13z"/>
<path d="M11069 2142 c-21 -18 -33 -41 -39 -70 -4 -24 -3 -39 2 -36 5 3 6 -6
2 -20 -5 -21 1 -33 29 -61 31 -31 41 -35 85 -35 63 0 112 31 129 81 20 62 -7
132 -61 161 -14 8 -17 7 -11 -4 6 -10 5 -11 -6 0 -7 6 -32 12 -56 12 -33 0
-50 -7 -74 -28z m30 -9 c-6 -7 -15 -10 -20 -7 -13 8 -3 21 15 21 12 0 13 -4 5
-14z"/>
<path d="M2331 1970 c-42 -10 -111 -41 -111 -50 0 -4 19 -12 41 -19 23 -7 38
-16 33 -20 -5 -4 -42 -17 -82 -30 -134 -41 -260 -167 -298 -296 -18 -65 -13
-81 22 -59 13 9 27 15 29 12 2 -2 -8 -33 -22 -68 -47 -115 -40 -317 12 -360
13 -11 17 -8 27 21 l11 33 17 -60 c23 -82 45 -121 98 -176 52 -54 72 -60 72
-22 l0 26 39 -35 c48 -43 73 -57 131 -72 40 -10 45 -14 42 -37 -3 -26 20 -58
42 -58 7 0 16 -30 22 -79 17 -123 65 -215 167 -315 45 -45 111 -98 147 -119
227 -131 558 -186 835 -139 142 25 291 73 406 133 192 100 339 308 339 481 0
25 5 38 13 38 21 0 47 34 47 62 0 22 7 27 58 41 55 15 142 69 142 88 0 5 5 9
11 9 5 0 9 -10 7 -22 -5 -35 19 -32 65 11 51 47 91 116 111 192 14 53 15 53
31 3 9 -27 33 2 50 59 22 73 19 191 -5 271 -11 36 -25 68 -30 71 -6 3 -10 11
-10 17 0 6 11 3 25 -6 32 -21 35 -20 35 7 0 38 -36 133 -69 181 -61 89 -181
167 -282 184 -52 9 -54 23 -5 36 58 15 44 34 -43 60 -122 36 -273 12 -387 -62
-69 -45 -110 -91 -154 -174 -17 -32 -33 -58 -34 -58 -2 0 -30 16 -62 35 -75
45 -157 76 -217 83 -38 4 -50 9 -57 26 -12 33 -37 49 -65 44 -24 -5 -25 -3
-20 26 13 65 -29 109 -85 91 -12 -4 -49 -32 -83 -64 -89 -82 -113 -97 -216
-130 -50 -16 -127 -49 -171 -72 -44 -24 -81 -41 -82 -38 -2 2 -16 30 -32 62
-34 69 -115 152 -183 190 -90 48 -229 69 -322 47z m198 -25 c128 -31 235 -115
292 -231 l31 -63 -33 -28 c-19 -15 -57 -52 -85 -82 -50 -53 -51 -53 -57 -29
-9 34 -74 99 -122 123 -57 28 -176 26 -230 -2 -54 -29 -111 -89 -130 -138 -8
-22 -9 -31 -2 -21 31 50 96 110 141 133 121 61 270 9 321 -114 12 -27 10 -34
-17 -74 -72 -106 -117 -221 -167 -426 -11 -45 -32 -105 -46 -133 -26 -51 -27
-52 -63 -45 -55 10 -117 50 -156 101 -19 25 -38 46 -43 47 -4 1 -6 -18 -4 -43
l3 -45 -32 30 c-66 62 -110 163 -110 252 0 54 -13 55 -37 3 -10 -22 -21 -40
-25 -40 -13 0 -28 75 -28 146 0 86 27 180 70 244 16 25 30 48 30 53 0 4 -22
-4 -50 -18 -59 -30 -61 -24 -21 60 66 138 242 255 384 255 52 0 44 20 -16 41
-62 20 -65 25 -25 37 81 26 140 27 227 7z m952 -6 c15 -29 -12 -100 -52 -133
-47 -40 -34 -40 35 -2 77 43 93 45 102 10 10 -40 -16 -75 -77 -107 l-54 -28
40 6 c44 7 89 36 106 67 10 18 18 20 59 15 159 -19 380 -174 496 -349 76 -114
117 -216 159 -392 14 -59 36 -128 49 -154 39 -78 50 -120 35 -138 -7 -8 -20
-12 -30 -9 -17 6 -19 1 -19 -39 0 -217 -161 -420 -420 -531 -157 -67 -276 -94
-455 -102 -260 -11 -481 40 -683 159 -79 46 -211 180 -244 248 -37 74 -61 174
-55 226 4 42 4 43 -23 38 -23 -5 -28 -2 -34 21 -5 20 4 49 33 113 22 48 52
137 66 197 15 61 38 139 52 173 101 255 302 450 543 527 120 39 152 57 236
136 80 74 114 86 135 48z m1034 1 l30 -12 -25 -10 c-68 -27 -90 -38 -90 -46 0
-5 29 -12 65 -14 123 -10 260 -97 330 -209 27 -42 58 -119 52 -126 -2 -2 -24
8 -48 22 -24 13 -47 25 -52 25 -4 0 8 -24 28 -52 46 -68 75 -163 75 -245 0
-64 -17 -153 -29 -153 -3 0 -14 18 -23 40 -9 22 -21 40 -26 40 -5 0 -12 -29
-14 -64 -7 -77 -41 -158 -93 -215 -21 -22 -40 -41 -44 -41 -3 0 -5 20 -3 45 2
25 0 45 -5 45 -4 0 -19 -18 -33 -40 -36 -58 -131 -118 -191 -120 -22 0 -75
118 -99 220 -35 151 -86 283 -147 379 -41 64 -39 83 14 142 51 56 106 82 173
82 93 0 197 -61 240 -142 11 -20 19 -29 20 -20 0 19 -50 98 -76 120 -77 64
-163 82 -258 55 -63 -19 -135 -76 -155 -125 l-12 -28 -85 84 -84 83 26 52 c53
105 170 201 283 234 55 16 213 13 256 -6z"/>
<path d="M2901 1172 c-36 -18 -60 -46 -49 -57 4 -4 20 3 37 16 22 16 49 24 91
27 59 4 75 14 44 26 -30 11 -89 6 -123 -12z"/>
<path d="M3771 1176 c-9 -11 -1 -14 49 -18 42 -3 69 -11 91 -27 37 -28 55 -24
33 8 -32 45 -146 69 -173 37z"/>
<path d="M3330 1043 c-48 -25 -94 -89 -122 -170 -19 -55 -23 -89 -23 -178 0
-102 2 -114 27 -156 35 -59 81 -82 174 -87 154 -9 233 74 234 244 0 117 -67
289 -132 335 -42 30 -113 35 -158 12z"/>
<path d="M3032 790 c-26 -24 -41 -30 -78 -30 -43 0 -104 25 -104 42 0 4 -7 8
-15 8 -44 0 15 -64 74 -80 29 -8 52 -8 81 0 44 12 100 54 100 76 0 22 -22 16
-58 -16z"/>
<path d="M3720 801 c0 -46 102 -89 169 -71 45 12 91 45 91 66 0 19 -7 18 -42
-7 -57 -41 -147 -34 -187 15 -18 22 -31 20 -31 -3z"/>
<path d="M3130 412 c0 -16 31 -51 64 -71 45 -28 129 -28 174 -1 l33 20 26 -20
c55 -43 180 -19 227 43 31 42 9 44 -32 4 -28 -28 -49 -38 -84 -43 -45 -6 -68
0 -125 36 -20 13 -24 12 -43 -8 -45 -48 -133 -42 -189 12 -36 35 -51 44 -51
28z"/>
<path d="M9265 1633 c-170 -24 -353 -130 -410 -239 -38 -71 -45 -57 -45 86 0
120 -1 131 -17 126 -74 -21 -221 -56 -241 -56 -14 0 -21 -4 -16 -11 3 -6 15
-8 26 -6 11 3 18 3 15 1 -3 -3 6 -16 18 -28 13 -13 28 -41 34 -62 16 -56 15
-1119 0 -1165 -14 -41 -45 -77 -79 -93 -20 -9 9 -12 150 -14 96 -1 186 0 200
3 l25 7 -32 13 c-20 9 -40 29 -55 57 -23 43 -23 47 -26 448 -2 248 1 436 7
485 14 104 56 190 130 263 31 31 55 60 53 65 -1 5 2 6 8 2 6 -4 21 0 34 9 13
8 52 25 86 36 76 26 232 29 297 6 138 -49 219 -168 243 -358 5 -45 10 -263 10
-483 0 -366 2 -403 19 -440 36 -81 109 -119 216 -113 l60 3 -35 19 c-45 25
-57 40 -76 103 -13 44 -16 128 -18 495 -3 467 -6 502 -52 606 -46 105 -220
235 -290 218 -15 -4 -23 -3 -20 2 11 17 -131 27 -219 15z m216 -40 c13 -17 13
-17 -6 -3 -11 8 -22 16 -24 17 -2 2 0 3 6 3 6 0 17 -8 24 -17z m-11 -19 c0 -2
-9 -4 -21 -4 -11 0 -18 4 -14 10 5 8 35 3 35 -6z m240 -70 c0 -2 -9 0 -20 6
-11 6 -20 13 -20 16 0 2 9 0 20 -6 11 -6 20 -13 20 -16z m55 -64 c3 -6 -1 -7
-9 -4 -18 7 -21 14 -7 14 6 0 13 -4 16 -10z"/>
<path d="M6030 1611 c-134 -43 -229 -111 -292 -208 -23 -35 -45 -63 -49 -63
-5 0 -9 59 -9 130 0 146 5 139 -81 114 -30 -9 -85 -22 -123 -28 l-69 -12 37
-22 c73 -43 71 -28 71 -662 0 -563 0 -565 -22 -606 -14 -26 -36 -48 -60 -60
l-38 -19 103 -3 c56 -1 148 -1 205 0 l102 3 -36 19 c-79 41 -88 98 -89 551 0
353 8 463 42 553 24 64 86 154 123 178 14 9 22 21 18 28 -3 6 -3 8 2 4 4 -4
31 6 59 23 29 16 61 29 72 29 13 0 15 3 6 8 -7 5 44 8 112 8 69 0 123 -2 121
-5 -3 -2 15 -13 38 -25 23 -11 64 -42 90 -68 27 -27 45 -43 41 -36 -4 7 -3 10
1 5 5 -4 10 -15 11 -25 2 -9 16 -51 31 -92 l28 -75 0 -485 0 -485 -23 -36
c-12 -20 -39 -45 -60 -55 l-37 -19 102 -3 c57 -1 149 -1 204 0 l102 3 -39 25
c-22 14 -48 43 -59 65 -19 38 -20 60 -20 470 0 470 2 492 62 607 15 29 26 60
24 68 -2 8 0 12 4 8 4 -4 36 19 72 51 101 93 222 127 344 97 115 -29 190 -102
231 -224 21 -64 22 -86 27 -547 6 -461 7 -482 27 -520 37 -71 118 -109 217
-103 48 3 50 4 27 15 -34 15 -69 49 -83 81 -8 19 -13 177 -17 522 -6 476 -7
498 -28 562 -33 98 -132 221 -163 202 -8 -5 -9 -3 -4 6 6 10 4 12 -8 7 -9 -3
-16 -2 -14 4 5 23 -97 52 -200 57 -85 4 -113 1 -172 -17 -47 -14 -69 -26 -65
-33 4 -7 3 -8 -4 -4 -6 4 -25 0 -42 -9 -32 -16 -42 -32 -14 -21 14 5 15 4 4
-9 -9 -11 -16 -13 -23 -6 -13 13 -70 -26 -61 -41 4 -6 3 -8 -3 -5 -11 7 -50
-31 -78 -76 -17 -26 -17 -27 1 -22 11 4 7 -1 -7 -9 -14 -8 -32 -29 -39 -46 -7
-16 -16 -30 -20 -30 -4 0 -18 27 -30 60 -27 72 -76 144 -92 134 -6 -4 -8 -3
-5 3 16 25 -92 94 -185 119 -75 20 -230 17 -298 -5z m1177 3 c-3 -3 -12 -4
-19 -1 -8 3 -5 6 6 6 11 1 17 -2 13 -5z m-1242 -44 c-3 -5 -12 -10 -18 -10 -7
0 -6 4 3 10 19 12 23 12 15 0z m535 -65 c0 -8 -5 -15 -11 -15 -5 0 -8 4 -5 9
4 5 0 12 -6 14 -8 3 -6 6 5 6 9 1 17 -6 17 -14z m-100 -19 c0 -11 -19 -15 -25
-6 -3 5 1 10 9 10 9 0 16 -2 16 -4z m38 -51 c-3 -3 -9 2 -12 12 -6 14 -5 15 5
6 7 -7 10 -15 7 -18z m1087 -1223 c-3 -3 -11 0 -18 7 -9 10 -8 11 6 5 10 -3
15 -9 12 -12z"/>
<path d="M11207 1603 c-9 -2 -15 -9 -12 -14 3 -5 -1 -6 -9 -3 -8 3 -38 -2 -65
-11 -27 -9 -78 -20 -113 -24 l-63 -8 35 -14 c19 -7 38 -12 43 -11 4 1 6 -1 5
-5 0 -5 7 -26 18 -48 18 -38 19 -70 19 -600 0 -308 -3 -572 -7 -586 -9 -30
-53 -77 -88 -93 -21 -9 -7 -11 83 -14 59 -1 153 -1 209 0 l101 3 -39 25 c-72
47 -69 11 -72 748 -2 516 -5 662 -15 661 -6 -1 -20 -3 -30 -6z"/>
</g>
</svg>
